<?xml version="1.0" encoding="UTF-8"?>
<!DOCTYPE svg PUBLIC "-//W3C//DTD SVG 1.1//EN" "http://www.w3.org/Graphics/SVG/1.1/DTD/svg11.dtd">
<svg xmlns="http://www.w3.org/2000/svg" version="1.1" width="512px" height="512px" style="shape-rendering:geometricPrecision; text-rendering:geometricPrecision; image-rendering:optimizeQuality; fill-rule:evenodd; clip-rule:evenodd" xmlns:xlink="http://www.w3.org/1999/xlink">
<g><path style="opacity:0.978" fill="#279ceb" d="M 104.5,-0.5 C 205.167,-0.5 305.833,-0.5 406.5,-0.5C 453.978,7.46899 486.811,33.8023 505,78.5C 507.667,86.8385 509.833,95.1718 511.5,103.5C 511.5,204.833 511.5,306.167 511.5,407.5C 502.46,457.043 474.127,490.21 426.5,507C 419.741,508.715 413.075,510.215 406.5,511.5C 305.833,511.5 205.167,511.5 104.5,511.5C 57.0222,503.531 24.1889,477.198 6,432.5C 3.33329,424.162 1.16662,415.828 -0.5,407.5C -0.5,306.5 -0.5,205.5 -0.5,104.5C 8.24702,54.5435 36.5804,21.0435 84.5,4C 91.2585,2.28494 97.9252,0.784944 104.5,-0.5 Z M 118.5,19.5 C 214.182,19.0317 309.849,19.5317 405.5,21C 449.804,29.6367 477.637,55.8034 489,99.5C 490.023,105.793 490.689,112.126 491,118.5C 491.667,209.833 491.667,301.167 491,392.5C 488.212,436.936 466.379,467.769 425.5,485C 414.837,488.833 403.837,490.833 392.5,491C 301.167,491.667 209.833,491.667 118.5,491C 74.0643,488.212 43.231,466.379 26,425.5C 22.2766,415.16 20.2766,404.493 20,393.5C 19.3333,301.5 19.3333,209.5 20,117.5C 23.2591,73.5919 45.0925,43.0919 85.5,26C 96.347,22.3075 107.347,20.1408 118.5,19.5 Z"/></g>
<g><path style="opacity:0.985" fill="#279ceb" d="M 247.5,84.5 C 283.102,82.0983 316.769,88.9316 348.5,105C 358.704,110.548 367.704,117.548 375.5,126C 364.418,140.586 352.418,154.419 339.5,167.5C 309.485,143.079 275.818,135.912 238.5,146C 220.764,154.874 215.931,168.374 224,186.5C 233.377,195.943 244.544,202.443 257.5,206C 283.692,213.507 309.026,223.174 333.5,235C 370.575,257.328 386.075,290.161 380,333.5C 373.045,369.46 352.545,394.293 318.5,408C 289.713,418.384 260.047,422.051 229.5,419C 194.576,416.586 163.243,404.919 135.5,384C 131.791,380.491 128.125,376.991 124.5,373.5C 137.159,358.842 150.159,344.509 163.5,330.5C 195.72,358.305 232.72,367.805 274.5,359C 298.707,349.398 306.541,332.231 298,307.5C 291.905,298.519 283.738,292.019 273.5,288C 251.102,280.2 228.768,272.2 206.5,264C 185.582,255.738 168.082,242.905 154,225.5C 139.199,199.616 136.866,172.616 147,144.5C 157.616,122.551 174.116,106.718 196.5,97C 212.984,90.2085 229.984,86.0419 247.5,84.5 Z"/></g>
</svg>
