<?xml version="1.0" encoding="UTF-8"?>
<svg id="Shoko" xmlns="http://www.w3.org/2000/svg" viewBox="0 0 732.51 698.09">
  <defs>
    <linearGradient id="myGradient" x1="0" y1="0" x2="800" y2="0" gradientUnits="userSpaceOnUse">
      <stop offset="0" stop-color="#1e4090" />
      <stop offset="0.14285714285714285" stop-color="#2a4b9d" />
      <stop offset="0.2857142857142857" stop-color="#3656ab" />
      <stop offset="0.42857142857142855" stop-color="#4261b8" />
      <stop offset="0.5714285714285714" stop-color="#4e6cc5" />
      <stop offset="0.7142857142857142" stop-color="#5a77d3" />
      <stop offset="0.8571428571428571" stop-color="#6682e0" />
      <stop offset="1" stop-color="#7391ec" />
    </linearGradient>
    <style>
      #Char .cls-1 {
      fill: url('#myGradient');
      stroke-width: 0px;
      }
      #Hair .cls-2 {
      fill: url('#myGradient');
      stroke-width: 0px;
      }
      #Eyes .cls-5 {
      fill: url('#myGradient');
      stroke-width: 0px;
      }
      #Ring .cls-1 {
      fill: url('#myGradient');
      stroke-width: 0px;
      }
    </style>
  </defs>
  <g id="Hair">
    <path class="cls-2" d="M593,386.19c-15-31.4-36.4-58.2-54.8-88.3,5.9,1.3,10.6,2.4,15.4,3.4.1-.2.2-.5.2-.7-5.5-3.4-11.2-6.5-16.3-10.4-5.2-4-9.6-8.8-14.4-13.3.3-.6.6-1.1.9-1.7,3,.3,6,.8,9,.9,5.7.3,11.3.4,17,.9,1.5.1,3.5,1.1,4.3,2.4,7,10.9,13.8,22,20.6,33,.3.5.6,1.1.1,2.3-3.4-2.9-6.8-5.8-10.3-8.7-.3.2-.6.4-.8.5,1.3,2.5,2.2,5.3,3.9,7.5,7.9,10.2,16.2,20.2,24.1,30.5,1.7,2.2,3.2,5.2,3.1,7.9-.3,11.3-1.2,22.5-2,33.8h0Z"/>
    <path class="cls-2" d="M266.3,367.69c2.3,4.7,5.7,9.1,6.9,14,5.4,22.3,10.2,44.7,15.2,67.1.2.8,0,1.6,0,2.5-.4.1-.9.2-1.3.3-7.7-27.6-15.4-55.3-23.2-83,.8-.2,1.6-.5,2.4-.9Z"/>
    <path class="cls-2" d="M438.1,254.79c9.6-2.5,19-3.6,28.6.4,9.3,3.9,18.8,7.4,28.2,11.1.8.3,1.6.9,2.2,2.4-1.1-.2-2.3-.2-3.2-.6-15.4-6.3-31.5-9.1-48.2-8.4-2.7.1-5.5-2.1-8.2-3.3.3-.5.4-1,.6-1.6h0Z"/>
    <path class="cls-2" d="M162,410.19c-5.7-9.6-3.9-16.1,3.8-21.7,3.7-2.7,6.4-6.9,10.5-9.9-4.6,10.2-9.3,20.5-14.3,31.6h0Z"/>
    <path class="cls-2" d="M481.4,418.49c6.3,1.8,11.8,3.3,17.3,4.9v1.7c-3.9,1-7.7,2.3-11.7,2.9-1,.2-2.8-1.2-3.4-2.4-.9-1.6-1.2-3.6-2.2-7.1h0Z"/>
    <path class="cls-2" d="M186.1,276.29c2.3,3.6,4.2,6.3,5.9,9.2.6,1,1,2.7.5,3.6-8.6,16.5-16.3,33.5-29.8,47-1.6,1.6-3.3,3-5,4.5-.4-.3-.8-.5-1.2-.8.7-1.9,1-4.2,2.3-5.5,13.4-13.5,19.2-30.9,24.7-48.4.9-2.9,1.6-5.8,2.6-9.6h0Z"/>
    <path class="cls-2" d="M532.5,210.59c10.1,12.6,20.1,25.2,30.2,37.8-.3.7-.6,1.4-.9,2-3.6-.3-7.5.3-10.7-.9-6.8-2.7-13.2-6.2-19.6-9.6-1-.5-1.8-2.4-1.8-3.6.4-8.2,1.1-16.5,1.6-24.7.5-.4.8-.7,1.2-1h0Z"/>
    <path class="cls-2" d="M550.2,470.59c-4.1-12.8-11.3-21.6-22.2-26.2-10.3-4.4-21.4-6.9-33.3-10.6,5.3-1.2,9.9-2.7,14.6-3.3,12.3-1.6,23.5.7,32.9,9.5,8.7,8.1,10.5,18.1,8,30.6Z"/>
    <path class="cls-2" d="M232.9,526.79c22.8-12.4,34.6-33.3,43.9-56.2,7.4,7.2,8.3,11.5,4.5,20-8.5,19-23.4,30.6-42.7,37.1-.9.3-1.9.5-2.9.6-.6,0-1.3-.2-1.9-.3-.3-.4-.6-.8-.9-1.2h0Z"/>
    <path class="cls-2" d="M520.4,481.79c-.5-.9-.8-1.3-.9-1.8-3.2-18.6-16.4-26.4-33-30.1-13.7-3.1-27.4-5.9-39.3-13.8-1-.7-2-1.5-2.9-1.4,17,2.6,34,4.9,50.9,7.8,11.3,1.9,20.5,7.6,26.7,17.6,5,8,4.5,15.3-1.5,21.7h0Z"/>
    <path class="cls-2" d="M521.3,232.59c-16.5-10.1-52.7-52.8-57.8-68.2,4.9,2.1,9.5,3.5,13.5,5.9,12.6,7.7,24.9,15.9,37.4,23.8,5.2,3.2,7.2,7.7,7,13.7-.3,8.1-.1,16.1-.1,24.8h0Z"/>
    <path class="cls-2" d="M269.9,236.69c1.3-10.4,2.2-20.8,3.9-31.1,1.9-11.6,4.2-23.2,6.8-34.7.5-2.3,2.7-5.1,4.8-6,7.5-3.5,15.3-6.3,24-9.8-2.8,33-19.6,57.9-37.9,82.2-.6-.2-1.1-.4-1.6-.6h0Z"/>
    <path class="cls-2" d="M514.4,311.09c1.7,4.4,3.4,8.9,5.2,13.3,10.9,26.4,25.2,50.4,47.9,68.4,5.5,4.4,12.1,7.6,18.4,10.9,2.4,1.2,3.4,2.3,2.6,4.9-1.5,4.9-3,9.9-4.5,14.8-.8,2.7-2.4,3.2-4.9,2.3-7.4-2.9-14.9-5.7-23.6-9,6.1,4.8,11.3,9,16.5,13.1-.3.5-.5,1-.8,1.4-6.9-2.6-14-4.7-20.7-7.8-28.4-13.2-43.4-36.8-50-66.5-2.7-12.3-4.7-24.8-6.5-37.4,14.2,17.9,18.4,40.4,28.9,60.2-.7-7.6-1.3-15.1-2.2-22.7-.9-7.6-1.8-15.2-3-22.8-1.2-7.6-2.9-15.2-4.4-22.8.5-.1.8-.2,1.1-.3h0Z"/>
    <path class="cls-2" d="M214.4,359.09c-8.5,30.7-21.2,59.2-39.1,87.2-3.1-7.7-5.8-14.1-8.1-20.6-.4-1.1.3-2.9,1-4.1,13.9-24.6,20.6-51.5,25.3-79.1,2.1-12.3,4.1-24.6,7-37.1,3.8,14.8,7.7,29.5,11.5,44.2.7-.1,1.4-.1,2.1-.2v-34h1.3c1.4,9.6,2.7,19.3,4.3,28.9,5.2,31.2,17.8,59.1,36.7,84.4,6.2,8.3,11.3,17.6,16.2,26.9-18.8-13.8-32.3-32-43.5-53.9-.6,3.5-.7,5.7-1.2,7.8-3.7,14.7-7.1,29.5-11.2,44-4.4,15.7-7.2,31.5-5.7,47.9,0,.4-.2.9-.3,1.8-9.9-12.4-16-25.4-10.5-41.2,4.6-13.2,9.3-26.4,14-39.6.8-2.2,1.3-4.5,2.2-6.6,5.6-15.1,7.4-30.2.7-45.6-1.6-3.4-1.9-7.4-2.7-11.1h0Z"/>
    <path class="cls-2" d="M230.9,268.79c.3,17.8,3.5,33.7,8.3,49.3,10.3,33.2,20.3,66.5,30.8,101.1-1.5-1.2-2-1.4-2.1-1.7-18.9-34.1-34.1-69.7-41.1-108.3-7.4-41.1-4.2-81.3,10.5-120.5.6-1.5,1.3-3.3,2.5-4.2,10.7-7.3,21.5-14.5,32.2-21.7.4.3.8.6,1.1.9-1.3,4.6-2.7,9.3-4.1,14-9.7,32-9.9,64.4-3.3,96.9,2.4,11.8,7.1,22.9,15.4,32.1.6.7,1,1.5.9,2.6-25.9-18.5-38.4-45.6-47.9-74.7-.6.2-1.1.3-1.7.5,2.8,10.9,4.7,22.2,8.7,32.8,4.9,13,12.4,24.7,22.9,34.2,1.4,1.2,1.9,3.7,2.3,5.8,3.4,20.9,8.4,41.2,20.8,58.8,5.5,7.7,12,14.6,18.6,22.7-2.5-1.3-4.5-2.1-6.3-3.3-24.5-15.5-40.2-38.3-51.1-64.4-6.6-15.8-10.8-32.5-16.1-48.8-.2-1-.5-1.9-1.3-4.1h0Z"/>
    <path class="cls-2" d="M424.9,197.39c-18.6-14.6-36.8-29.4-50.1-50.7,9,.4,16.5-.4,23.5,6.3,10.2,9.6,22,17.6,33.9,25.4-8.5-9.4-17.1-18.7-25.6-28.1.4-.6.8-1.1,1.1-1.6,6.7,1.4,13.4,3.2,20.2,4.3,13.2,2.1,22.2,8.6,29.7,20.4,15.8,25,35.1,47.3,59.3,64.9,15.7,11.4,32.9,19.4,51.2,25.6.8.3,1.6.5,2.3.9.3.1.5.5,1.6,1.6-3.7,1-6.9,2.1-10.1,2.5-18.6,2.6-36.7-.6-54.2-5.9-56.5-17.2-105.4-46.1-141.4-94.2-.6-.8-1.3-1.5-2.3-1.9,13.8,39.5,43.7,63.1,80.5,80-10.5,2.6-19.8.1-28.9-4.7,3.6,3.2,7.2,6.5,11,10-9.8.3-39.2-18.2-55.6-34.4-15.9-15.8-28.4-33.9-37.8-54.3-.1,21.1,6.7,40.4,14.6,59.5-.5.2-.9.5-1.4.8-3.9-5.9-8.3-11.5-11.7-17.6-8.4-15.3-12.7-31.8-12.6-49.3,0-2.9.7-4.4,3.6-4.8,11-1.6,22-3.6,33.1-4.9,2.2-.3,5.2,1.1,6.8,2.8,17.1,17.5,35.8,32.9,56.4,45.9.8.5,1.9,1,2.9,1.5h0Z"/>
  </g>
  <g id="Char">
    <path class="cls-1" d="M370.5,480.39c1.3.2,2.6,0,3.4.5,27.8,16.2,57,17.6,87.4,9.3,25.6-7,49.9-3.3,72.8,9.7,1.9,1.1,3.7,2.3,5.5,3.5.5.4.9.9,1.3,1.3-2.4,5-5.6,5.5-10.9,4.5-13.7-2.7-27.7-3.8-41.5-6.2-23.7-4.2-45,2.4-64.8,14.7-16,9.9-31.2,21-47,31.3-20.3,13.2-41.5,24.7-63.9,33.9-2.4,1-5.7,1.3-8.1.4-14.4-5.2-28.6-10.8-42.9-16.4-1.3-.5-2.8-1.6-3.3-2.8-4.7-11.7-12.4-21.2-20.7-30.4-.2-.2-.2-.6-.3-1.3,3.4-1,6.9-1.9,10.3-3,12-4.1,21.7-11.5,30.3-20.6.8-.8,1.5-1.8,2.4-2.6,18.1-16.2,20.6-36.9,16.2-59.1-3.6-18.1-7.9-36.1-11.8-54.1-.5-2.3-1-4.5-1.8-8.1,2.4,1.8,3.9,2.8,5.3,4,22.7,19.2,46.7,36.5,73.6,49.5,4.3,2.1,6.6,4.9,6.8,10,.4,10.8,1.2,21.4,1.7,32h0ZM331.2,547.69c-14.8-14.3-35.1-17.6-51.9-8.7,18.4-4,35.1,2.3,51.9,8.7ZM373.3,533.09c.3.3.7.5,1,.8,3.2-3.9,6.3-7.7,9.5-11.6-.3-.2-.5-.4-.8-.7-3.2,3.9-6.5,7.7-9.7,11.5h0Z"/>
    <path class="cls-1" d="M457.2,297.59c-4.7.6-6-1.8-7-5.2-1.3-4.5-3.3-8.9-4.9-13.2,5.2,1.3,7.1,3.9,7.6,10.2,4.3-.9,6-6.1,5-15.4,5.7,1.5,9.9,4.6,13.4,8.9,4.6,5.6,0,10.3-1.2,15.8,5.1-4.8,10.1-9.5,15.4-14.6-5.1-5.6-9.8-10.8-15.2-16.8,8.6,2.2,16.6,4.2,25.3,6.4-3,7.1-5.5,13.7-8.5,20.1-7.9,17.1-14.3,34.7-18.1,53.3-3.5,17.1-13.9,30.5-26.6,41.9-18.8,17-39.8,30.7-63.5,39.9-6.3,2.4-12.4,2.8-18.2-.7-11.9-7-23.7-14.1-35.5-21.3-1.1-.6-1.9-1.7-4.1-3.7,14.2,2.2,26.2,1.1,35.9-7.5-6.8.2-13.9,1.3-20.7.4-12.7-1.7-23-8.6-31.5-18-15.8-17.4-24.4-38.3-28.8-61.1-.1-.6,0-1.3.1-2.4,8.8,4.4,17.7,6.3,27.6,5-5.1-4.7-10-8.8-14.4-13.4-9.6-10-14.5-22.2-16.6-35.7-.7-4.3,0-7.7,5.5-8.1,1.3,2.1,2.7,4.3,4,6.5.8-9.2,6.8-12.9,14.3-15.6-2.2,4.9-4.3,9.5-6.3,14.1.8-.1,1.5-.2,2.3-.4,2.5,3.3,5,6.7,7,9.4-.5-2.9-1.2-6.5-1.8-10.1.7-.2,1.3-.4,2-.6.8,1.6,1.8,3.2,2.5,4.9,3.3,7.5,8.3,8.3,13.7,2.1,1.6-1.8,3-3.8,4.9-6.2,3.5,5.3.3,9.6-.1,13.9,5-4.4,4.2-14.8-1.4-18.3,4.1-1.1,6.4.6,6.7,5.3.2,3,.5,6.1.8,9.9,3.1-1.4,5.1-2.4,8.2-3.8-1.8-.8-2.7-1.1-3.2-1.4.4-5.2.8-10.4,1.4-17.1,5.2,5.9,10,11.2,15,16.8-.8-5.3-1.7-10.2-2.6-16.1,2.8,1.4,4.7,2.3,6.6,3.2-5.6-12.3-16.6-18.9-33.4-20.1-15-1.1-28.7,2.6-41.1,11.1-1.8,1.2-3.5,2.4-5.3,3.5-.5-.2-1-.4-1.4-.6.9-2.1,1.4-4.5,2.7-6.4,10.3-14.9,21-29.6,31.2-44.6,4.3-6.4,7.7-13.6,12.1-21.5,5.9,26.5,21.2,46,40.2,62.8,6.4,5.6,13.8,10.1,21.4,14.4-11.8-14.3-22-29.2-27-47.3,22.7,26,49.5,45.3,83.9,54-8.4,5.6-15.3,11.8-17.1,22.6,2.2-2.4,4-4.2,5.8-6.1.3.1.6.3.8.4-.5,2.3-1.2,4.6-1.6,7-.9,5.6.8,7.2,6.2,5.9,4.3-1,8.1-2.5,8-7.9,0-.6.8-1.2,1.3-1.9,3.8,4.3,3.2,6.7-2.6,13.4,1.2-1,2.4-2,3.6-3.1s2.3-2.4,3.8-4c.2,2.2.4,3.7.5,5.2h1.1v-10.8c4,4,6.6,13.6,4.8,16.9-4.4,8-11.9,10.8-23.2,9.2,6.5,3.2,13.7,4.2,20.4,1.9,5.6-2.1,7.4-8.8,9.9-15.3h0ZM335.1,280.49c-.4-.4-.8-.7-1.2-1.1-1.4,1.6-2.9,3.1-4.2,4.7-8.1,10.8-22.7,14.2-31.4,6.4-4.4-4-7.1-9.8-10.2-14.3-2.2,4.6-1.8,7.5,2.9,12.6,7.3,8,21.8,11.8,31.8,8.1,6.8-2.3,12.2-9.6,12.3-16.4ZM399.2,348.79c6.2-2.6,10.7-7,14-12.6.4-.7.5-2.1.1-2.8-2-3.7-4.3-7.4-6.5-11-.5.1-1.1.1-1.6.2,5.7,10.6-1.6,17.9-6,26.2ZM347.6,369.39c4.3,8.2,11.7,6.2,17.3,8.1-5.3-2.5-10.7-5-17.3-8.1ZM344.2,243.49c.3-.4.5-.8.8-1.2-4.5-2.6-9-5.1-13.4-7.7-.2.4-.4.7-.6,1.1,4.3,2.5,8.8,5.1,13.2,7.8h0ZM396,376.39c-3.9,1.2-7.1,2.1-10.9,3.3,5.9,1.7,8.1,1,10.9-3.3Z"/>
    <path class="cls-1" d="M443.2,561.49c19.6-18.8,41.2-30.6,68.6-31.5-20.3,16.3-44.4,22.5-68.6,31.5Z"/>
    <path class="cls-1" d="M208.5,282.89c1.2,4,7.4,6.2,4.4,12.9-2.8-2-5.7-3.4-7.5-5.7-9.3-11.6-15.7-24.7-18.2-39.4-.4-2.2-.4-5.1.8-6.7,4.3-6.2,9.2-12.1,14-18,.8-1,2.3-2,3.4-1.9,3.5.4,7.4.6,10.1,2.4,1.5,1,1,5.1,1.3,7.9-4.2-1.8-7.4-3.9-10.6-4.1-2.3-.1-4.7,2.4-6.5,3.4,3.7,1.6,7.9,2.2,10.6,4.7,2.3,2.1,2.8,6.2,4.1,9.4-.4.2-.8.4-1.3.6-3.1-1.3-6.1-2.6-9.2-3.9,5.3,5.3,10.5,10.5,9.1,18.4-1.2,6.5,3.4,14.3-4.5,20h0Z"/>
    <path class="cls-1" d="M529.5,516.99c-2.3.9-4.6,2.6-6.9,2.7-28.8,1.2-53.8,12-75.8,29.8-15.9,12.9-31,26.8-46.2,40.4-3.3,3-6.6,4.5-11,4.6-21.7.5-43.2-1-65.6-6,3.5-2,6-3.6,8.8-4.9,28.6-13.5,54.5-31.4,80.3-49.3,7.1-4.9,14.5-9.5,22-13.8,18.4-10.6,38.4-13.8,59.3-11.2,11.7,1.4,23.3,3.4,34.9,5.2.1.8.2,1.7.2,2.5h0ZM449.9,529.49l.4.9,14.3-7.4c-.2-.3-.3-.7-.5-1-4.7,2.4-9.4,4.9-14.2,7.5h0Z"/>
  </g>
  <g id="Ring">
    <path class="cls-1" d="M362,60.59c67.2.8,127.1,22.7,180.3,63,56.4,42.8,93.7,98.7,111.5,167.3,2.2,8.4,3.6,17,5.1,25.5.9,5.1-1,7.5-6.2,8.2-5.9.9-9.6-1.1-10.2-6-3.4-27.4-11.7-53.4-24.3-77.8-29.2-56.9-71-101.2-130-127.9-22.8-10.3-47.1-15.5-71.8-18.8-25.4-3.4-50.8-4.6-76.3-1.2-60.5,8.1-112.9,32.5-154.8,77.8-6.3,6.8-6.7,7-13.8,1.5-4.9-3.8-9.4-8-14.1-12-2.2-1.8-2.5-3.7-.6-6,1.8-2.1,3.3-4.6,5.2-6.6,38-40.3,83.4-68.2,137.8-80.3,20.6-4.5,41.3-7,62.2-6.7h0Z"/>
    <path class="cls-1" d="M380.2,660.09c-67,1.2-124.8-16.2-178.1-49.9-64.8-41-107.7-98.9-129.8-171.5-23.9-78.6-16.5-155.9,16.5-230.7,7.2-16.2,17.1-31.2,25.8-46.7.9-1.6,2.1-3,3.2-4.4,4.2-5.1,6.4-5.6,11.8-1.8,10.6,7.6,21,15.4,31.2,23.4,5.2,4.1,6.4,11.9,3.1,17.7-8.2,14.3-16.7,28.4-25,42.7-1.8,3.1-4,3.7-7,1.8-1-.6-2-1.3-3-1.8-7.1-4-13.8-1.9-15.8,5.9-4.3,16.8-8.3,33.6-11.6,50.6-1.9,9.8-2.4,19.8-3,29.8-.2,2.2,1.7,4.5,2.5,6.9.6,1.8,1.1,3.7,1.3,5.6.6,6.4,3.2,9.5,9.6,9.9,6.5.5,13,.5,19.5.5,4.2,0,6.2,1.5,6.1,5.9-.1,4.5.3,9,.2,13.5,0,6.6-1.4,8.2-7.8,9.6-4.7,1-9.5,1.9-14.2,3-5.9,1.3-7.6,3.5-7.1,9.4.5,6,1.8,11.2,8.3,14.2,2.2,1,3.5,5.1,4.2,8,4.2,18.5,10.9,36,19.2,53,19.5,39.3,46.7,72,82.7,97.2,53.8,37.5,113.4,54.4,178.8,50.1,14.6-1,29-4.2,43.5-6.1,2.5-.3,7.2-.3,7.5.8,1.7,4.7,2.5,9.8,2.8,14.8.1.9-3.7,2.5-5.8,2.9-9.6,2.1-19.2,4.1-28.9,5.8-5.1.9-8.1,3.4-9.1,8.5-.8,4.6-1.9,9.1-2.7,13.7-.8,4.6-3.2,6.9-8.1,7-8.1-.1-16.4.5-20.8.7h0Z"/>
    <path class="cls-1" d="M639.9,178.89c4.2-.3,7.3-.5,11-.8-.2-.9-.3-2-.8-2.8-27.8-42-63.3-76.3-106.1-102.9-49.6-30.8-103.6-48.5-162-52.2-36.5-2.3-72.6,1.2-108.3,9-2.6.6-5.2,1.2-7.8,1.6-5.2.7-10.2-2.9-11.2-7.8-1-5,1.3-8.6,7.2-10.1C289.4,5.89,317.3.59,345.7.09c136.7-2.6,244,53.7,323.2,164,31.7,44.2,51.6,93.9,60.1,147.9,4.4,28.2,4.5,56.4,1.2,84.7-4.9,41.7-15.7,81.8-34.8,119.3-3.5,6.8-7.1,13.6-11.1,20.2-5,8.3-10.8,9.6-18.8,4.2-7.8-5.2-15.4-10.6-23-16-8-5.7-9.2-9.8-4.7-18.7,12-23.5,21.7-47.9,28.1-73.6,21.4-86,8.5-166.6-40.5-240.4-46.6-70.5-111.7-115.4-194-135.2-38-9.1-76.5-10.2-115.2-4.9-2.5.3-5,.6-7.5.7-4,.1-6.8-1.6-7.6-5.7-.9-4.3,1.5-8.4,5.9-8.9,15-1.9,30.1-4.3,45.2-4.8,67.2-2.1,129.3,14.8,186.2,50.7,40.2,25.5,73.3,58.5,101.5,95.3h0Z"/>
    <path class="cls-1" d="M182.2,660.09c.2,7.7-7.6,12.9-13.7,10.8-1.5-.5-3-1.4-4.4-2.3-22.1-15.1-42.9-31.7-60.6-51.8-1.1-1.2-2.1-2.6-3-4-2.8-4.3-2.2-8.2,1.5-11.5,3.6-3.2,7.8-3.1,11.6.6,8.2,7.8,15.8,16.3,24.6,23.4,12.6,10.3,26,19.7,38.9,29.6,2.2,1.7,3.9,4,5.1,5.2h0Z"/>
    <path class="cls-1" d="M0,362.89c1.1-15,2.1-29.9,3.3-44.9.5-5.8,3.7-8.2,9.5-7.6,5.2.5,7.8,3.6,7.2,9.3-3.7,36-2.6,71.9,3.3,107.6.8,4.6,1.7,9.2,2.5,13.8,1.2,6.9-.5,10-6,11-5.9,1.1-9-1.1-10.4-7.8-5.5-26.9-8.9-53.9-9.4-81.4h0Z"/>
    <path class="cls-1" d="M238.8,70.99c-.9,1-2.2,3.3-4.3,4.6-12.7,7.9-25.6,15.6-38.4,23.3-3.5,2.1-7.1,2.7-9.8-.9-2.7-3.6-1.5-7.2,2.1-9.4,12.5-8.2,25-16.4,37.9-24.1,6.3-3.8,12.4-.9,12.5,6.5h0Z"/>
    <path class="cls-1" d="M479.8,603.39c.1-4.5,3.6-5.8,6.9-7.7,16.1-9.2,32.3-18.4,48.1-28.2,5.9-3.6,11-8.6,16.4-12.9,1.4-1.1,2.8-2.4,4.3-3.4,4.1-2.7,9.2-2,11.6,1.4,2.9,4.2.5,7.2-2.6,9.9-15.9,13.5-32.3,26.3-50.7,36.1-7.9,4.2-15.9,8.4-24.1,11.9-6,2.7-10-.6-9.9-7.1h0Z"/>
    <path class="cls-1" d="M176.5,71.49c-8.5-.2-19.1-9.5-18.6-16.6.2-3.4,3-7.5,5.9-9.6,12.6-9,25.5-17.4,38.4-26,2.3-1.6,4.9-2.9,7.4-4.1,6.3-2.9,12.2-.5,14.3,6.1,1.5,4.7,2.9,9.7,3.1,14.6.1,2.4-1.8,5.9-3.9,7.3-13.9,9.2-28,18-42.1,26.7-1.6,1.1-3.7,1.3-4.5,1.6h0Z"/>
    <path class="cls-1" d="M660.5,377.89c-2.4,33.3-10,66-23.9,97.2-2.7,6.1-5.6,12.1-8.4,18.1-.6,1.2-1.2,2.4-1.9,3.5-2.6,4.1-7.7,5.5-11.7,3.3-4.2-2.3-5-5.9-2.6-11.1,5.1-11,10.7-21.8,15.1-33.1,10-25.4,15.8-51.8,17.4-79.1.4-6.7,2.1-9,6.6-9.5,7.2-1,9.7,1.7,9.4,10.7h0Z"/>
    <path class="cls-1" d="M241.8,558.69c-5.4-3.7-11-7.2-16.2-11.3-40.5-32.3-69.2-73-85.2-122.4-.8-2.5-1.5-5.1-2.1-7.7-1.3-5.6.7-8.5,6.4-8.6,1.2,0,3,1.8,3.6,3.1,2.5,5.8,4.7,11.7,7,17.6,5.9,15.3,16.1,27.9,24.9,41.4,4.9,7.5,9,15.5,13.1,23.5,7.5,14.8,18.3,26.9,29.8,38.5,6.3,6.4,11.5,13.7,17.1,20.7,1,1.2,1.5,2.8,2.2,4.2,0,.5-.3.7-.6,1h0Z"/>
    <path class="cls-1" d="M570.5,674.09c-2.8-2.4-6.3-4.3-7.7-7.2-1.2-2.5-.5-6.3.3-9.2.5-1.8,2.8-3.2,4.6-4.4,33.1-22.9,60.6-51.3,84.2-83.8,4.8-6.7,9.8-7.8,15.1-3.6,4.8,3.8,5.6,8.9,1.1,14.5-11.8,14.7-23.4,29.4-35.9,43.4-15.5,17.3-33.6,31.7-52.4,45.3-2.6,1.7-5.6,2.9-9.3,5h0Z"/>
    <path class="cls-1" d="M30.4,341.69c.8-78.7,23.1-150.3,70.1-213.7,9.1-12.3,19.7-23.4,29.8-35,1.3-1.5,3-2.7,4.7-3.7,4.4-2.5,9.8-1.1,12.9,3,2.9,3.7,2.3,7.4-1.3,11.7-11.2,13-23,25.5-33.3,39.2-31.5,41.9-50.6,89.3-59.9,140.8-7.1,39.4-7.5,78.9-2.1,118.4,1.1,8.2-2,11.6-9.6,10.8-5.3-.5-6.8-4.2-7.2-8.7-1.8-20.9-3.6-41.8-5.3-62.7.3,0,.7-.1,1.2-.1h0Z"/>
    <path class="cls-1" d="M111.6,321.49c3.6-18.6,6.9-37.3,10.8-55.8,1.9-9.3,7.2-11.9,15.7-7.8,5,2.4,6.8.4,8.7-3.8,10.3-22.9,23-44.6,39.2-63.6,37.1-43.4,84.4-69.6,140.9-78.6,26.7-4.3,53.5-6.5,80.6-3.2,17,2.1,33.3,6.4,49.5,11.8,4.6,1.5,5.8,3.9,3.6,8.2-.4.7-.6,1.5-.9,2.3-2.9,6.9-3.5,7.2-10.9,5.2-24.5-6.7-49.4-11-74.9-11-60.3.1-112.4,21.9-157.7,61-36.2,31.2-60,70.1-71.5,116.5-2.1,8.5-3,17.4-4.2,26.1-1,7.6-3.1,9.4-10.8,9-2.7-.1-5.3-.4-8-.6-6.7-.5-8.9-2.8-8.9-9.4,0-2,.2-4,.3-6-.5-.1-1-.2-1.5-.3h0Z"/>
    <path class="cls-1" d="M249.1,658.89c-.3,2.1-.5,4.3-.9,6.4-1.8,10-3.3,11.1-12.4,6.9-11.8-5.4-23.8-10.6-34.9-17.2-50.6-30.4-92.8-69.7-124.2-120.1-.4-.6-.7-1.1-1-1.7-5.7-9.7-4.2-14.2,6-18.8,6.9-3,9.9-2,14.7,4.7,13.3,18.5,26.1,37.5,40.1,55.4,22.2,28.3,51.3,48.2,82.4,65.5,8.4,4.7,17.3,8.6,25.9,13.1,2,1.1,3.5,3.2,5.3,4.8-.5.4-.7.7-1,1h0Z"/>
    <path class="cls-1" d="M419.5,590.49c25.4-15.8,51-31.1,81.9-33.5,7.3-.6,12.8-4.7,18-9,49.5-41.2,81.6-92.8,90.9-157.2,10-68.8-10.6-128.8-54.2-181.5-20.1-24.3-44.6-43.4-72.2-58.5-5.9-3.2-6.2-4.1-3.5-10.2.5-1.2,1.2-2.4,1.8-3.6,4.6-9.3,5-9.7,14.1-4.1,68.8,42.3,115.2,101.2,129.9,181.7,11.4,61.9-.1,120.4-34.1,173.8-8.5,13.4-19.4,24.7-32.1,34.6-17.6,13.8-34.8,27.9-54.2,39.3-26.7,15.6-55.7,24.3-86.3,28.2h0Z"/>
    <path class="cls-1" d="M378.9,698.09c-38.4,0-67.1-3.4-95.4-10-7.6-1.8-10.1-4.1-10.2-9.6-.2-9.2,4.4-12.9,13.4-11.3,18.5,3.2,37,7.2,55.7,9.1,23.9,2.5,47.9,1.6,71.8-2.1,7-1.1,8.3-2.6,9.7-9.4.8-4.4,1.8-8.8,2.2-13.3.7-6.2,4.1-9.1,10.2-10.3,21.3-4.3,42-10.4,61.9-19.3,26.2-11.8,50.3-26.7,72-45.5,10.2-8.8,10.8-8.9,20.2.7,3.9,3.9,7.7,7.8,11.6,11.8,8.5,8.9,8.4,15-.9,23.2-28,24.6-58.8,44.7-93.4,58.9-44.4,18-90.3,27.3-128.8,27.1h0Z"/>
  </g>
  <g id="Eyes">
    <path class="cls-5" d="M288.1,276.19c.3.48,1.99,3.15,2.3,3.65,2.54,4.04,2.79,4.44,3.32,5.2,1.78,2.55,2.67,3.83,4.25,5.23,2.44,2.16,4.81,3.12,5.47,3.38.66.26,2.88,1.06,5.9,1.15,2.68.08,4.67-.44,6.2-.85,4.69-1.27,7.76-3.53,8.45-4.05.38-.29,2.38-1.8,4-3.75,1.02-1.22,2.4-2.9,2.4-2.9.63-.76.64-.78.75-.9.97-1.06,1.57-1.35,2.4-2.45.13-.17.26-.34.35-.5.85-1.43.02-3.61-.75-5.1l-6.35,3-1.3-13c-.18-.44-.81-1.84-2.3-2.5-1.69-.74-3.82-.25-3.9.3-.03.19.17.49,1.15.95l1.65,1.91,1.55,3.59.5,2.85-.6,4.05-1.45,3.36-.85.79-.55.8.4-2.2.75-2.7.65-2v-2.5l-.5-2.2-1.2-2.3-4.45,5.65-3.3,3.25-2.09,1.08-1.91.52-2.08-.6-2.57-1.95-2-3.4-2.7-5.35-2,.6,1.8,10.1-7-9.4-2.3.4-2.1,8.8Z"/>
    <path class="cls-5" d="M439.7,285.2s.04.04.05.07c.29.35.66.86,1.01,1.53.16.31.27.51.36.81.31.95.17,1.78.07,2.3-.08.43-.22.96-.59,1.77-.4.88-.88,1.66-1.89,2.98-.61.79-1.41,1.8-2.42,2.92l1.45-1.19,2.93-2.65,3.03-3.26.5,5.2h1.1v-10.8c1.23,1.4,2.08,2.71,2.63,3.7.29.52,1.68,3.04,2.4,6.62,0,0,.36,1.67.33,3.92,0,.89-.08,1.55-.37,2.28-.25.63-.56,1.05-.78,1.35-1.53,2.04-2.29,3.06-3.07,3.8-.63.6-1.83,1.73-3.7,2.72-2.2,1.16-4.13,1.51-5.5,1.75-1.47.26-2.73.33-3.48.37-1.49.08-2.56.03-2.88.02-.83-.04-1.53-.11-2.08-.18l-1.9-.23-2.73-17.32c.41.28,1.07.65,1.92.81.94.18,1.66.02,3.2-.42,2.85-.81,4.3-1.23,5.37-1.95,1.37-.93,1.88-1.77,2.02-2,.44-.75.66-1.62.73-1.98.07-.36.09-.58.09-.58.03-.35,0-.43.06-.71.01-.08.04-.17.04-.31,0-.11,0-.14,0-.31,0-.19,0-.28.02-.36.03-.15.11-.26.19-.37.25-.33.49-.59.58-.68.13-.13.31-.34.51-.61l.79.96v.05Z"/>
    <path class="cls-5" d="M445.3,279.19l4.18,10.88,3.42-.68c-.03-.5-.09-1.22-.23-2.08-.19-1.17-.36-2.2-.9-3.37-.28-.6-.65-1.4-1.43-2.2-.7-.72-1.42-1.12-1.91-1.4-.62-.34-1.17-.56-1.58-.7l-.77-.22-.78-.23Z"/>
  </g>
</svg>
